/* XPM */
static char *_8fb1eb770484494b88d17f2e7a51affeORiUIMndhagTny4[] = {
/* columns rows colors chars-per-pixel */
"32 32 97 2 ",
"   c #FF0042",
".  c #FF004E",
"X  c #FF005B",
"o  c #FB055A",
"O  c #FB065A",
"+  c #FC045B",
"@  c #F40F58",
"#  c #F90959",
"$  c #F80A59",
"%  c #EF1657",
"&  c #ED1956",
"*  c #E91F55",
"=  c #F11457",
"-  c #F21258",
";  c #D33E4F",
":  c #DE2E53",
">  c #DA3351",
",  c #DC3152",
"<  c #D83750",
"1  c #D53A50",
"2  c #D43C50",
"3  c #E32753",
"4  c #E42653",
"5  c #E72255",
"6  c #E62355",
"7  c #E42554",
"8  c #E82055",
"9  c #E12A53",
"0  c #E22854",
"q  c #BE5B4A",
"w  c #BC5E48",
"e  c #B26B47",
"r  c #B46947",
"t  c #B06E46",
"y  c #B86348",
"u  c #AF7045",
"i  c #AA7644",
"p  c #AC7445",
"a  c #A47F43",
"s  c #A87944",
"d  c #CF434E",
"f  c #CE444E",
"g  c #CC474E",
"h  c #C74E4C",
"j  c #CB494D",
"k  c #D0424E",
"l  c #C6504B",
"z  c #C1564A",
"x  c #C0584A",
"c  c #76BF36",
"v  c #7BB837",
"b  c #78BC37",
"n  c #7FB338",
"m  c #7CB738",
"M  c #7ABA38",
"N  c #6BCE33",
"B  c #6DCB34",
"V  c #6DCC34",
"C  c #6CCD34",
"Z  c #73C335",
"A  c #75C036",
"S  c #74C136",
"D  c #70C735",
"F  c #67D432",
"G  c #68D233",
"H  c #63D932",
"J  c #64D832",
"K  c #61DC30",
"L  c #60DD30",
"P  c #5BE52F",
"I  c #57EA2E",
"U  c #53EF2D",
"Y  c #4FF52C",
"T  c #4CFA2B",
"R  c #48FF2A",
"E  c #52F12D",
"W  c #50F42C",
"Q  c #5EE030",
"!  c #998E3F",
"~  c #8F9C3D",
"^  c #8E9E3D",
"/  c #96933F",
"(  c #93973E",
")  c #95943E",
"_  c #91993D",
"`  c #89A53B",
"'  c #88A63B",
"]  c #8BA13D",
"[  c #85AA3A",
"{  c #81AF3A",
"}  c #81B039",
"|  c #9E8741",
" . c #9D8941",
".. c #9B8C40",
"X. c #988F40",
"o. c #A28142",
"O. c #A08542",
/* pixels */
"  . . . . . . . . . . . . . . . . . . . . . . . . . . . . . .   ",
". X X X X X X X X X X X X X X X X X X X X X X X X X X X X X X . ",
". X X X X X X X - % X X X X X X X X X X X X X X X X X X X X X . ",
". h F V D c J Y R L X M N G s X X X X X { F H ..X X X V F L : . ",
". w R R R R R R R I X F R R  .X X X X X M R R ^ X X = R R R * . ",
". z R R R R R R R U X F R R O.X X X X X m R R _ X X ; R R R o . ",
". l R R R R R R R T X F R R a X X X X X n R R _ X X e R R Q X . ",
". j R R R R R R R R - V R R s X X X X X } R R X.X X X.R R m X . ",
". k R R R V } N E R & V R R p X X X X X [ R R ! X X S R R ! X . ",
". 2 R R R & X X X @ X B R R t X X X X X [ R R  .X X E R R q X . ",
". < R R R # X X X X X B R R r X X X X X ` R R ! X : R R R 5 X . ",
". > R R R & X X X X X D R R y X X X X X ] R R | X o.R R P X X . ",
". : R R R [ O._ { j X D R R w X X X X X ^ R R [ ; W R R _ X X . ",
". 9 R R R R R R R a X c R R q X X X X X ^ R R R R R R R d X X . ",
". 4 R R R R R R R | X c R R z X X X X X ( R R R R R R Z X X X . ",
". 5 R R R R R R R ..X c R R z X X X X X ( R R R R R R y X X X . ",
". 5 R R R R R R R O.X b R R z X X X X X ( R R R R R R ( X X X . ",
". 7 R R R R R R R o.X b R R z X X X X X _ R R R R R R Q X X X . ",
". 0 R R R } ] m D y X b R R z X X X X X ^ R R T N R R R 0 X X . ",
". : R R R # X X X X X S R R z X X X X X ] R R ^ g R R R u X X . ",
". : R R R # X X X X X S R R z X X X X X ' R R ! $ T R R m X X . ",
". > R R R @ X X X X X D R R z X X X X X [ R R / X m R R Y o X . ",
". > R R R - X X X X X D R R ] a ..] v < { R R ) X i R R R d X . ",
". < R R R % X X X X X D R R R R R R R j { R R _ X < R R R o.X . ",
". 1 R R R & X X X X X D R R R R R R R 1 n R R ^ X o U R R D X . ",
". 1 R R R 5 X X X X X B R R R R R R R 1 M R R ] X X m R R T o . ",
". 2 R R R 3 X X X X X B R R R R R R R 0 M R R ] X X s R R R : . ",
". 2 R R R : X X X X X B R R R R R R R 5 b R R ] X X < R R R f . ",
". o z e u # X X X X X 0 f z z y t i o.X 7 l h * X X X 1 w j + . ",
". X X X X X X X X X X X X X X X X X X X X X X X X X X X X X X . ",
". X X X X X X X X X X X X X X X X X X X X X X X X X X X X X X . ",
"  . . . . . . . . . . . . . . . . . . . . . . . . . . . . . .   "
};
